<svg width="146" height="95" viewBox="0 0 146 95" fill="none" xmlns="http://www.w3.org/2000/svg">
<path fill-rule="evenodd" clip-rule="evenodd" d="M58.108 62.2767C68.6813 59.1179 78.1839 55.6202 85.1668 45.4663C92.1498 35.3123 86.1958 18.137 78.3088 12.5231C70.4219 6.90917 50.5014 3.72295 42.5209 16.81C37.382 25.2371 38.5482 31.1636 39.5327 36.1669C40.0771 38.9336 40.5659 41.4181 39.9024 43.887C39.1256 46.8061 37.2357 49.432 35.4879 51.8604C33.0439 55.2561 30.8778 58.2658 32.4206 61.1517C35.1037 66.0678 47.5348 65.4356 58.108 62.2767ZM60.271 32.6524H64.6908C64.6072 31.6546 64.3695 30.769 63.9776 29.9958C63.5858 29.2226 63.0686 28.5722 62.426 28.0446C61.7834 27.5117 61.0363 27.1068 60.1848 26.8299C59.3332 26.553 58.4007 26.4146 57.3871 26.4146C55.9452 26.4146 54.6391 26.7306 53.4689 27.3628C52.2986 27.9897 51.3687 28.917 50.6791 30.1447C49.9895 31.3672 49.6446 32.8718 49.6446 34.6586C49.6446 36.4348 49.9816 37.9368 50.6556 39.1646C51.3347 40.3923 52.2568 41.3222 53.4219 41.9544C54.5921 42.5865 55.9139 42.9026 57.3871 42.9026C58.5626 42.9026 59.5944 42.7223 60.4825 42.3619C61.3707 42.0014 62.1152 41.526 62.716 40.9356C63.322 40.34 63.7896 39.6922 64.1187 38.9922C64.4478 38.2869 64.6385 37.5947 64.6908 36.9155L60.271 36.8841C60.2187 37.2289 60.1168 37.5398 59.9653 37.8167C59.8191 38.0884 59.6284 38.3208 59.3933 38.5141C59.1582 38.7074 58.8813 38.8563 58.5626 38.9608C58.2439 39.0601 57.8834 39.1097 57.4812 39.1097C56.7759 39.1097 56.1725 38.9451 55.6709 38.616C55.1694 38.2817 54.7854 37.7853 54.519 37.1271C54.2577 36.4636 54.1271 35.6407 54.1271 34.6586C54.1271 33.7286 54.2551 32.9319 54.5111 32.2684C54.7723 31.6049 55.1537 31.0956 55.6553 30.7403C56.162 30.3851 56.7811 30.2074 57.5125 30.2074C57.9305 30.2074 58.304 30.2675 58.6331 30.3877C58.9623 30.5026 59.2418 30.6698 59.4716 30.8892C59.7067 31.1034 59.8896 31.3594 60.0202 31.6572C60.156 31.955 60.2396 32.2867 60.271 32.6524ZM66.6675 42.6832H72.8427C74.4727 42.6832 75.8859 42.3645 77.0822 41.7271C78.2786 41.0845 79.2033 40.165 79.8564 38.9687C80.5094 37.7671 80.8359 36.3304 80.8359 34.6586C80.8359 32.9868 80.5068 31.5527 79.8485 30.3563C79.1955 29.1547 78.2656 28.2352 77.0587 27.5979C75.8571 26.9553 74.4309 26.634 72.78 26.634H66.6675V42.6832ZM72.686 38.9843H71.0246V30.3328H72.5606C73.3965 30.3328 74.1018 30.4608 74.6764 30.7168C75.2563 30.9728 75.6952 31.4143 75.993 32.0412C76.296 32.6681 76.4475 33.5406 76.4475 34.6586C76.4475 35.7766 76.2986 36.649 76.0008 37.276C75.7082 37.9029 75.2799 38.3443 74.7156 38.6003C74.1566 38.8563 73.4801 38.9843 72.686 38.9843Z" fill="#A76CE2"/>
<path d="M95.3394 43V27.5897H101.51C102.643 27.5897 103.589 27.7577 104.346 28.0938C105.104 28.4299 105.673 28.8964 106.054 29.4934C106.436 30.0853 106.626 30.7676 106.626 31.5401C106.626 32.142 106.506 32.6713 106.265 33.1278C106.024 33.5792 105.693 33.9504 105.272 34.2414C104.855 34.5273 104.379 34.7305 103.842 34.8509V35.0014C104.429 35.0265 104.978 35.192 105.49 35.498C106.007 35.804 106.426 36.2329 106.747 36.7847C107.068 37.3315 107.228 37.9836 107.228 38.7411C107.228 39.5588 107.025 40.2886 106.619 40.9307C106.217 41.5678 105.623 42.072 104.835 42.4432C104.048 42.8144 103.077 43 101.923 43H95.3394ZM98.5975 40.3363H101.254C102.162 40.3363 102.824 40.1632 103.24 39.8171C103.657 39.466 103.865 38.9994 103.865 38.4175C103.865 37.9911 103.762 37.6149 103.556 37.2889C103.351 36.9628 103.057 36.707 102.676 36.5213C102.3 36.3357 101.851 36.2429 101.329 36.2429H98.5975V40.3363ZM98.5975 34.0382H101.013C101.459 34.0382 101.856 33.9605 102.202 33.805C102.553 33.6445 102.829 33.4187 103.029 33.1278C103.235 32.8368 103.338 32.4882 103.338 32.0818C103.338 31.525 103.14 31.0761 102.744 30.7349C102.352 30.3938 101.795 30.2233 101.073 30.2233H98.5975V34.0382ZM112.584 43.2182C111.846 43.2182 111.189 43.0903 110.612 42.8345C110.035 42.5736 109.579 42.1899 109.243 41.6832C108.912 41.1715 108.746 40.5344 108.746 39.772C108.746 39.1299 108.864 38.5906 109.1 38.1542C109.336 37.7178 109.657 37.3666 110.063 37.1007C110.469 36.8349 110.931 36.6342 111.448 36.4988C111.969 36.3633 112.516 36.268 113.088 36.2128C113.76 36.1426 114.302 36.0774 114.713 36.0172C115.125 35.952 115.423 35.8567 115.609 35.7313C115.794 35.6059 115.887 35.4202 115.887 35.1744V35.1293C115.887 34.6527 115.737 34.284 115.436 34.0232C115.14 33.7623 114.718 33.6319 114.171 33.6319C113.595 33.6319 113.136 33.7598 112.794 34.0157C112.453 34.2665 112.228 34.5825 112.117 34.9638L109.153 34.723C109.303 34.0207 109.599 33.4137 110.041 32.902C110.482 32.3853 111.051 31.989 111.749 31.7131C112.451 31.4322 113.264 31.2918 114.187 31.2918C114.829 31.2918 115.443 31.367 116.03 31.5175C116.622 31.668 117.146 31.9013 117.603 32.2173C118.064 32.5333 118.428 32.9396 118.694 33.4363C118.96 33.9279 119.093 34.5173 119.093 35.2045V43H116.053V41.3973H115.962C115.777 41.7584 115.528 42.077 115.217 42.3529C114.906 42.6238 114.533 42.837 114.096 42.9925C113.66 43.143 113.156 43.2182 112.584 43.2182ZM113.502 41.006C113.973 41.006 114.39 40.9132 114.751 40.7276C115.112 40.537 115.395 40.2811 115.601 39.9601C115.807 39.639 115.91 39.2753 115.91 38.869V37.6425C115.809 37.7077 115.671 37.7679 115.496 37.8231C115.325 37.8733 115.132 37.9209 114.916 37.9661C114.701 38.0062 114.485 38.0438 114.269 38.0789C114.054 38.109 113.858 38.1366 113.682 38.1617C113.306 38.2169 112.978 38.3047 112.697 38.4251C112.416 38.5455 112.198 38.7085 112.042 38.9142C111.887 39.1148 111.809 39.3656 111.809 39.6666C111.809 40.103 111.967 40.4366 112.283 40.6674C112.604 40.8931 113.01 41.006 113.502 41.006ZM124.785 36.3182V43H121.579V31.4423H124.634V33.4814H124.77C125.026 32.8092 125.455 32.2775 126.057 31.8862C126.659 31.4899 127.388 31.2918 128.246 31.2918C129.049 31.2918 129.749 31.4673 130.346 31.8185C130.943 32.1696 131.407 32.6713 131.738 33.3234C132.069 33.9705 132.234 34.743 132.234 35.641V43H129.029V36.2128C129.034 35.5055 128.853 34.9537 128.487 34.5574C128.121 34.1561 127.617 33.9555 126.975 33.9555C126.543 33.9555 126.162 34.0483 125.831 34.2339C125.505 34.4195 125.249 34.6904 125.063 35.0465C124.883 35.3977 124.79 35.8216 124.785 36.3182ZM137.665 39.6741L137.673 35.8291H138.139L141.841 31.4423H145.521L140.547 37.2512H139.787L137.665 39.6741ZM134.761 43V27.5897H137.966V43H134.761ZM141.984 43L138.583 37.9661L140.72 35.7012L145.739 43H141.984Z" fill="#A76CE2"/>
</svg>
